<svg xmlns="http://www.w3.org/2000/svg" width="1200" height="720" viewBox="0 0 1200 720" role="img" aria-label="GraphForge UI preview">
  <defs>
    <linearGradient id="bg" x1="0" y1="0" x2="1" y2="1">
      <stop offset="0%" stop-color="#F5F1EB" />
      <stop offset="100%" stop-color="#FAF8F5" />
    </linearGradient>
  </defs>
  <rect width="1200" height="720" fill="url(#bg)" />
  <rect x="60" y="60" width="1080" height="600" rx="22" fill="#FFFFFF" stroke="#D4DDD0" />
  <rect x="90" y="100" width="320" height="520" rx="16" fill="#FAF8F5" stroke="#D4DDD0" />
  <rect x="440" y="100" width="670" height="80" rx="12" fill="#FAF8F5" stroke="#D4DDD0" />
  <rect x="440" y="200" width="670" height="360" rx="12" fill="#F0ECE4" stroke="#D4DDD0" />
  <rect x="470" y="230" width="270" height="52" rx="10" fill="#FFFFFF" />
  <rect x="470" y="300" width="360" height="56" rx="10" fill="#FAF8F5" />
  <rect x="470" y="380" width="280" height="52" rx="10" fill="#FAF8F5" />
  <rect x="470" y="460" width="420" height="56" rx="10" fill="#FFFFFF" />
  <rect x="440" y="580" width="670" height="60" rx="12" fill="#FAF8F5" stroke="#D4DDD0" />
  <circle cx="120" cy="140" r="8" fill="#3D8B56" />
  <circle cx="120" cy="175" r="8" fill="#4A7B8B" />
  <circle cx="120" cy="210" r="8" fill="#E8734A" />
  <text x="460" y="150" font-size="20" font-family="DM Sans, Segoe UI, Arial, sans-serif" fill="#1A2F1E">GraphForge Live Session</text>
  <text x="470" y="620" font-size="14" font-family="DM Sans, Segoe UI, Arial, sans-serif" fill="#5A6B5E">Ask in natural language, watch the graph build in real time</text>
</svg>
